<?xml version="1.0" encoding="UTF-8" standalone="no"?>
<!-- Generator: Adobe Illustrator 22.1.0, SVG Export Plug-In . SVG Version: 6.00 Build 0)  -->

<svg
   xmlns:dc="http://purl.org/dc/elements/1.1/"
   xmlns:cc="http://creativecommons.org/ns#"
   xmlns:rdf="http://www.w3.org/1999/02/22-rdf-syntax-ns#"
   xmlns:svg="http://www.w3.org/2000/svg"
   xmlns="http://www.w3.org/2000/svg"
   xmlns:sodipodi="http://sodipodi.sourceforge.net/DTD/sodipodi-0.dtd"
   xmlns:inkscape="http://www.inkscape.org/namespaces/inkscape"
   version="1.1"
   x="0px"
   y="0px"
   viewBox="0 0 899.7 379"
   style="enable-background:new 0 0 899.7 379;"
   xml:space="preserve"
   id="svg102"
   sodipodi:docname="v08g.svg"
   inkscape:version="0.92.3 (2405546, 2018-03-11)"><metadata
   id="metadata108"><rdf:RDF><cc:Work
       rdf:about=""><dc:format>image/svg+xml</dc:format><dc:type
         rdf:resource="http://purl.org/dc/dcmitype/StillImage" /></cc:Work></rdf:RDF></metadata><defs
   id="defs106" /><sodipodi:namedview
   pagecolor="#ffffff"
   bordercolor="#666666"
   borderopacity="1"
   objecttolerance="10"
   gridtolerance="10"
   guidetolerance="10"
   inkscape:pageopacity="0"
   inkscape:pageshadow="2"
   inkscape:window-width="1920"
   inkscape:window-height="1001"
   id="namedview104"
   showgrid="false"
   inkscape:zoom="1.1301762"
   inkscape:cx="45.949062"
   inkscape:cy="209.11112"
   inkscape:window-x="1911"
   inkscape:window-y="-9"
   inkscape:window-maximized="1"
   inkscape:current-layer="Layer_1" />
<style
   type="text/css"
   id="style10">
	.st0{fill:#6D6E70;}
	.st1{fill:none;stroke:#000000;stroke-width:0.5;stroke-miterlimit:2.6131;}
	.st2{fill:#E6E7E8;}
	.st3{fill:none;stroke:#A7A9AC;stroke-width:0.5;stroke-miterlimit:2.6131;}
	.st4{fill:#A7A9AC;}
	.st5{fill:#939598;}
	.st6{font-family:'Verdana';}
	.st7{font-size:10px;}
	.st8{fill:none;}
	.st9{fill:none;stroke:#000000;stroke-miterlimit:10;}
</style>
<g
   id="Layer_1"
   inkscape:version="0.92.3 (2405546, 2018-03-11)"
   sodipodi:docname="capacitive-jig-iphone4s-v08f_ai.svg">

		<sodipodi:namedview
   bordercolor="#666666"
   borderopacity="1"
   gridtolerance="10"
   guidetolerance="10"
   id="namedview4001"
   inkscape:current-layer="layer1"
   inkscape:cx="145.94566"
   inkscape:cy="158.82841"
   inkscape:measure-end="162.815,177.895"
   inkscape:measure-start="162.815,178.151"
   inkscape:pageopacity="0"
   inkscape:pageshadow="2"
   inkscape:window-height="1001"
   inkscape:window-maximized="1"
   inkscape:window-width="1920"
   inkscape:window-x="-9"
   inkscape:window-y="-9"
   inkscape:zoom="3.9124152"
   objecttolerance="10"
   pagecolor="#ffffff"
   showgrid="false">
		</sodipodi:namedview>
	<path
   id="path3862"
   class="st0"
   d="M 44.996512,-93.189343 H 270.78162 c 5.44272,0 10.00758,4.389291 10.00758,10.007583 v 348.68525 c 0,5.44272 -4.38929,10.00758 -10.00758,10.00758 H 44.996512 c -5.442721,0 -10.007583,-4.38929 -10.007583,-10.00758 V -83.357332 c 0,-5.44272 4.389291,-9.832011 10.007583,-9.832011 z"
   inkscape:connector-curvature="0"
   style="fill:#6d6e70;stroke-width:1.7557162" />
	<path
   id="path3864"
   class="st1"
   d="M 44.996512,-93.189343 H 270.78162 c 5.44272,0 10.00758,4.389291 10.00758,10.007583 v 348.68525 c 0,5.44272 -4.38929,10.00758 -10.00758,10.00758 H 44.996512 c -5.442721,0 -10.007583,-4.38929 -10.007583,-10.00758 V -83.357332 c 0,-5.44272 4.389291,-9.832011 10.007583,-9.832011 z"
   inkscape:connector-curvature="0"
   style="fill:none;stroke:#000000;stroke-width:0.8778581;stroke-miterlimit:2.61310005" />
	<polygon
   id="polygon3866"
   class="st2"
   points="116.6,275.6 115.1,273 118.7,266.8 122.2,260.7 129.3,260.7 136.4,260.7 139.9,266.8 143.5,273 142,275.6 "
   transform="matrix(1.7557163,0,0,1.7557163,-26.109997,-208.5399)"
   style="fill:#e6e7e8" />
	<polygon
   id="polygon3868"
   class="st3"
   points="116.6,275.6 115.1,273 118.7,266.8 122.2,260.7 129.3,260.7 136.4,260.7 139.9,266.8 143.5,273 142,275.6 "
   transform="matrix(1.7557163,0,0,1.7557163,-26.109997,-208.5399)"
   style="fill:none;stroke:#a7a9ac;stroke-width:0.5;stroke-miterlimit:2.61310005" />
	<polygon
   id="polygon3870"
   class="st2"
   points="67.5,275.6 66,273 69.6,266.8 73.1,260.7 80.2,260.7 87.3,260.7 90.8,266.8 94.4,273 92.9,275.6 "
   transform="matrix(1.7557163,0,0,1.7557163,-26.109997,-208.5399)"
   style="fill:#e6e7e8" />
	<polygon
   id="polygon3872"
   class="st3"
   points="67.5,275.6 66,273 69.6,266.8 73.1,260.7 80.2,260.7 87.3,260.7 90.8,266.8 94.4,273 92.9,275.6 "
   transform="matrix(1.7557163,0,0,1.7557163,-26.109997,-208.5399)"
   style="fill:none;stroke:#a7a9ac;stroke-width:0.5;stroke-miterlimit:2.61310005" />
	<polygon
   id="polygon3874"
   class="st2"
   points="174.7,200.2 171.3,200.2 167.8,194.1 164.2,187.9 167.8,181.8 171.3,175.6 174.7,175.6 "
   transform="matrix(1.7557163,0,0,1.7557163,-26.109997,-208.5399)"
   style="fill:#e6e7e8" />
	<polygon
   id="polygon3876"
   class="st3"
   points="174.7,200.2 171.3,200.2 167.8,194.1 164.2,187.9 167.8,181.8 171.3,175.6 174.7,175.6 "
   transform="matrix(1.7557163,0,0,1.7557163,-26.109997,-208.5399)"
   style="fill:none;stroke:#a7a9ac;stroke-width:0.5;stroke-miterlimit:2.61310005" />
	<polygon
   id="polygon3878"
   class="st2"
   points="174.7,228.5 171.3,228.5 167.8,222.4 164.2,216.3 167.8,210.1 171.3,204 174.7,204 "
   transform="matrix(1.7557163,0,0,1.7557163,-26.109997,-208.5399)"
   style="fill:#e6e7e8" />
	<polygon
   id="polygon3880"
   class="st3"
   points="174.7,228.5 171.3,228.5 167.8,222.4 164.2,216.3 167.8,210.1 171.3,204 174.7,204 "
   transform="matrix(1.7557163,0,0,1.7557163,-26.109997,-208.5399)"
   style="fill:none;stroke:#a7a9ac;stroke-width:0.5;stroke-miterlimit:2.61310005" />
	<polygon
   id="polygon3882"
   class="st2"
   points="174.7,256.9 171.3,256.9 167.8,250.8 164.2,244.6 167.8,238.5 171.3,232.3 174.7,232.3 "
   transform="matrix(1.7557163,0,0,1.7557163,-26.109997,-208.5399)"
   style="fill:#e6e7e8" />
	<polygon
   id="polygon3884"
   class="st3"
   points="174.7,256.9 171.3,256.9 167.8,250.8 164.2,244.6 167.8,238.5 171.3,232.3 174.7,232.3 "
   transform="matrix(1.7557163,0,0,1.7557163,-26.109997,-208.5399)"
   style="fill:none;stroke:#a7a9ac;stroke-width:0.5;stroke-miterlimit:2.61310005" />
	<path
   id="path3886"
   class="st2"
   d="m 280.61363,249.17533 v 16.15259 c 0,5.44272 -4.38929,10.00758 -10.00758,10.00758 h -5.79386 l -2.63358,-4.56486 6.14501,-10.70987 6.14501,-10.70987 h 6.145 z"
   inkscape:connector-curvature="0"
   style="fill:#e6e7e8;stroke-width:1.7557162" />
	<path
   id="path3888"
   class="st3"
   d="m 280.61363,249.17533 v 16.15259 c 0,5.44272 -4.38929,10.00758 -10.00758,10.00758 h -5.79386 l -2.63358,-4.56486 6.14501,-10.70987 6.14501,-10.70987 h 6.145 z"
   inkscape:connector-curvature="0"
   style="fill:none;stroke:#a7a9ac;stroke-width:0.8778581;stroke-miterlimit:2.61310005" />
	<polygon
   id="polygon3890"
   class="st2"
   points="34.8,175.6 38.2,175.6 41.7,181.8 45.3,187.9 41.7,194.1 38.2,200.2 34.8,200.2 "
   transform="matrix(1.7557163,0,0,1.7557163,-26.109997,-208.5399)"
   style="fill:#e6e7e8" />
	<polygon
   id="polygon3892"
   class="st3"
   points="34.8,175.6 38.2,175.6 41.7,181.8 45.3,187.9 41.7,194.1 38.2,200.2 34.8,200.2 "
   transform="matrix(1.7557163,0,0,1.7557163,-26.109997,-208.5399)"
   style="fill:none;stroke:#a7a9ac;stroke-width:0.5;stroke-miterlimit:2.61310005" />
	<polygon
   id="polygon3894"
   class="st2"
   points="34.8,204 38.2,204 41.7,210.1 45.3,216.3 41.7,222.4 38.2,228.5 34.8,228.5 "
   transform="matrix(1.7557163,0,0,1.7557163,-26.109997,-208.5399)"
   style="fill:#e6e7e8" />
	<polygon
   id="polygon3896"
   class="st3"
   points="34.8,204 38.2,204 41.7,210.1 45.3,216.3 41.7,222.4 38.2,228.5 34.8,228.5 "
   transform="matrix(1.7557163,0,0,1.7557163,-26.109997,-208.5399)"
   style="fill:none;stroke:#a7a9ac;stroke-width:0.5;stroke-miterlimit:2.61310005" />
	<polygon
   id="polygon3898"
   class="st2"
   points="34.8,232.3 38.2,232.3 41.7,238.5 45.3,244.6 41.7,250.8 38.2,256.9 34.8,256.9 "
   transform="matrix(1.7557163,0,0,1.7557163,-26.109997,-208.5399)"
   style="fill:#e6e7e8" />
	<polygon
   id="polygon3900"
   class="st3"
   points="34.8,232.3 38.2,232.3 41.7,238.5 45.3,244.6 41.7,250.8 38.2,256.9 34.8,256.9 "
   transform="matrix(1.7557163,0,0,1.7557163,-26.109997,-208.5399)"
   style="fill:none;stroke:#a7a9ac;stroke-width:0.5;stroke-miterlimit:2.61310005" />
	<path
   id="path3902"
   class="st2"
   d="m 50.790375,275.3355 h -5.793863 c -5.442721,0 -10.007583,-4.38929 -10.007583,-10.00758 v -16.15259 h 5.969435 l 6.145007,10.70987 6.145007,10.70987 z"
   inkscape:connector-curvature="0"
   style="fill:#e6e7e8;stroke-width:1.7557162" />
	<path
   id="path3904"
   class="st3"
   d="m 50.790375,275.3355 h -5.793863 c -5.442721,0 -10.007583,-4.38929 -10.007583,-10.00758 v -16.15259 h 5.969435 l 6.145007,10.70987 6.145007,10.70987 z"
   inkscape:connector-curvature="0"
   style="fill:none;stroke:#a7a9ac;stroke-width:0.8778581;stroke-miterlimit:2.61310005" />
	<polygon
   id="polygon3906"
   class="st2"
   points="34.8,232.3 38.2,232.3 41.7,238.5 45.3,244.6 41.7,250.8 38.2,256.9 34.8,256.9 "
   transform="matrix(1.7557163,0,0,1.7557163,-26.109997,-208.5399)"
   style="fill:#e6e7e8" />
	<polygon
   id="polygon3908"
   class="st3"
   points="34.8,232.3 38.2,232.3 41.7,238.5 45.3,244.6 41.7,250.8 38.2,256.9 34.8,256.9 "
   transform="matrix(1.7557163,0,0,1.7557163,-26.109997,-208.5399)"
   style="fill:none;stroke:#a7a9ac;stroke-width:0.5;stroke-miterlimit:2.61310005" />
	<circle
   id="circle3910"
   class="st1"
   cx="157.88907"
   cy="35.329075"
   r="112.01469"
   style="fill:none;stroke:#000000;stroke-width:0.8778581;stroke-miterlimit:2.61310005" />
	<polygon
   id="A"
   inkscape:label="#polygon3912"
   class="st2"
   points="45,196 48.6,189.8 55.7,189.8 62.7,189.8 66.3,196 69.8,202.1 66.3,208.2 62.7,214.4 55.7,214.4 48.6,214.4 45,208.2 41.5,202.1 "
   transform="matrix(1.7557163,0,0,1.7557163,-26.109997,-208.5399)"
   style="fill:#e6e7e8">
	</polygon>
	<polygon
   id="polygon3914"
   class="st3"
   points="45,196 48.6,189.8 55.7,189.8 62.7,189.8 66.3,196 69.8,202.1 66.3,208.2 62.7,214.4 55.7,214.4 48.6,214.4 45,208.2 41.5,202.1 "
   transform="matrix(1.7557163,0,0,1.7557163,-26.109997,-208.5399)"
   style="fill:none;stroke:#a7a9ac;stroke-width:0.5;stroke-miterlimit:2.61310005" />
	<polygon
   id="polygon3916"
   class="st2"
   points="69.6,210.1 73.1,204 80.2,204 87.3,204 90.8,210.1 94.4,216.3 90.8,222.4 87.3,228.5 80.2,228.5 73.1,228.5 69.6,222.4 66,216.3 "
   transform="matrix(1.7557163,0,0,1.7557163,-26.109997,-208.5399)"
   style="fill:#e6e7e8" />
	<polygon
   id="polygon3918"
   class="st3"
   points="69.6,210.1 73.1,204 80.2,204 87.3,204 90.8,210.1 94.4,216.3 90.8,222.4 87.3,228.5 80.2,228.5 73.1,228.5 69.6,222.4 66,216.3 "
   transform="matrix(1.7557163,0,0,1.7557163,-26.109997,-208.5399)"
   style="fill:none;stroke:#a7a9ac;stroke-width:0.5;stroke-miterlimit:2.61310005" />
	<polygon
   id="F"
   inkscape:label="#polygon3920"
   class="st2"
   points="94.1,224.3 97.7,218.2 104.8,218.2 111.8,218.2 115.4,224.3 118.9,230.4 115.4,236.6 111.8,242.7 104.8,242.7 97.7,242.7 94.1,236.6 90.6,230.4 "
   transform="matrix(1.7557163,0,0,1.7557163,-26.109997,-208.5399)"
   style="fill:#e6e7e8">
	</polygon>
	<polygon
   id="polygon3922"
   class="st3"
   points="94.1,224.3 97.7,218.2 104.8,218.2 111.8,218.2 115.4,224.3 118.9,230.4 115.4,236.6 111.8,242.7 104.8,242.7 97.7,242.7 94.1,236.6 90.6,230.4 "
   transform="matrix(1.7557163,0,0,1.7557163,-26.109997,-208.5399)"
   style="fill:none;stroke:#a7a9ac;stroke-width:0.5;stroke-miterlimit:2.61310005" />
	<polygon
   id="I"
   inkscape:label="#polygon3924"
   class="st2"
   points="118.7,238.5 122.2,232.3 129.3,232.3 136.4,232.3 139.9,238.5 143.5,244.6 139.9,250.8 136.4,256.9 129.3,256.9 122.2,256.9 118.7,250.8 115.1,244.6 "
   transform="matrix(1.7557163,0,0,1.7557163,-26.109997,-208.5399)"
   style="fill:#e6e7e8">
	</polygon>
	<polygon
   id="polygon3926"
   class="st3"
   points="118.7,238.5 122.2,232.3 129.3,232.3 136.4,232.3 139.9,238.5 143.5,244.6 139.9,250.8 136.4,256.9 129.3,256.9 122.2,256.9 118.7,250.8 115.1,244.6 "
   transform="matrix(1.7557163,0,0,1.7557163,-26.109997,-208.5399)"
   style="fill:none;stroke:#a7a9ac;stroke-width:0.5;stroke-miterlimit:2.61310005" />
	<polygon
   id="polygon3928"
   class="st2"
   points="143.2,252.6 146.8,246.5 153.9,246.5 160.9,246.5 164.5,252.6 168,258.8 164.5,264.9 160.9,271.1 153.9,271.1 146.8,271.1 143.2,264.9 139.7,258.8 "
   transform="matrix(1.7557163,0,0,1.7557163,-26.109997,-208.5399)"
   style="fill:#e6e7e8" />
	<polygon
   id="polygon3930"
   class="st3"
   points="143.2,252.6 146.8,246.5 153.9,246.5 160.9,246.5 164.5,252.6 168,258.8 164.5,264.9 160.9,271.1 153.9,271.1 146.8,271.1 143.2,264.9 139.7,258.8 "
   transform="matrix(1.7557163,0,0,1.7557163,-26.109997,-208.5399)"
   style="fill:none;stroke:#a7a9ac;stroke-width:0.5;stroke-miterlimit:2.61310005" />
	<polygon
   id="B"
   inkscape:label="#polygon3932"
   class="st2"
   points="45,224.3 48.6,218.2 55.7,218.2 62.7,218.2 66.3,224.3 69.8,230.4 66.3,236.6 62.7,242.7 55.7,242.7 48.6,242.7 45,236.6 41.5,230.4 "
   transform="matrix(1.7557163,0,0,1.7557163,-26.109997,-208.5399)"
   style="fill:#e6e7e8">
	</polygon>
	<polygon
   id="polygon3934"
   class="st3"
   points="45,224.3 48.6,218.2 55.7,218.2 62.7,218.2 66.3,224.3 69.8,230.4 66.3,236.6 62.7,242.7 55.7,242.7 48.6,242.7 45,236.6 41.5,230.4 "
   transform="matrix(1.7557163,0,0,1.7557163,-26.109997,-208.5399)"
   style="fill:none;stroke:#a7a9ac;stroke-width:0.5;stroke-miterlimit:2.61310005" />
	<polygon
   id="E"
   inkscape:label="#polygon3936"
   class="st2"
   points="69.6,238.5 73.1,232.3 80.2,232.3 87.3,232.3 90.8,238.5 94.4,244.6 90.8,250.8 87.3,256.9 80.2,256.9 73.1,256.9 69.6,250.8 66,244.6 "
   transform="matrix(1.7557163,0,0,1.7557163,-26.109997,-208.5399)"
   style="fill:#e6e7e8">
	</polygon>
	<polygon
   id="polygon3938"
   class="st3"
   points="69.6,238.5 73.1,232.3 80.2,232.3 87.3,232.3 90.8,238.5 94.4,244.6 90.8,250.8 87.3,256.9 80.2,256.9 73.1,256.9 69.6,250.8 66,244.6 "
   transform="matrix(1.7557163,0,0,1.7557163,-26.109997,-208.5399)"
   style="fill:none;stroke:#a7a9ac;stroke-width:0.5;stroke-miterlimit:2.61310005" />
	<polygon
   id="G"
   inkscape:label="#polygon3940"
   class="st2"
   points="94.1,252.6 97.7,246.5 104.8,246.5 111.8,246.5 115.4,252.6 118.9,258.8 115.4,264.9 111.8,271.1 104.8,271.1 97.7,271.1 94.1,264.9 90.6,258.8 "
   transform="matrix(1.7557163,0,0,1.7557163,-26.109997,-208.5399)"
   style="fill:#e6e7e8">
	</polygon>
	<polygon
   id="polygon3942"
   class="st3"
   points="94.1,252.6 97.7,246.5 104.8,246.5 111.8,246.5 115.4,252.6 118.9,258.8 115.4,264.9 111.8,271.1 104.8,271.1 97.7,271.1 94.1,264.9 90.6,258.8 "
   transform="matrix(1.7557163,0,0,1.7557163,-26.109997,-208.5399)"
   style="fill:none;stroke:#a7a9ac;stroke-width:0.5;stroke-miterlimit:2.61310005" />
	<polygon
   id="C"
   inkscape:label="#polygon3944"
   class="st2"
   points="45,252.6 48.6,246.5 55.7,246.5 62.7,246.5 66.3,252.6 69.8,258.8 66.3,264.9 62.7,271.1 55.7,271.1 48.6,271.1 45,264.9 41.5,258.8 "
   transform="matrix(1.7557163,0,0,1.7557163,-26.109997,-208.5399)"
   style="fill:#e6e7e8">
	</polygon>
	<polygon
   id="polygon3946"
   class="st3"
   points="45,252.6 48.6,246.5 55.7,246.5 62.7,246.5 66.3,252.6 69.8,258.8 66.3,264.9 62.7,271.1 55.7,271.1 48.6,271.1 45,264.9 41.5,258.8 "
   transform="matrix(1.7557163,0,0,1.7557163,-26.109997,-208.5399)"
   style="fill:none;stroke:#a7a9ac;stroke-width:0.5;stroke-miterlimit:2.61310005" />
	<polygon
   id="D"
   inkscape:label="#polygon3948"
   class="st2"
   points="90.8,210.1 94.4,216.3 90.8,222.4 87.3,228.5 80.2,228.5 73.1,228.5 69.6,222.4 66,216.3 69.6,210.1 73.1,204 80.2,204 87.3,204 "
   transform="matrix(1.7557163,0,0,1.7557163,-26.109997,-208.5399)"
   style="fill:#e6e7e8">
	</polygon>
	<polygon
   id="polygon3950"
   class="st3"
   points="90.8,210.1 94.4,216.3 90.8,222.4 87.3,228.5 80.2,228.5 73.1,228.5 69.6,222.4 66,216.3 69.6,210.1 73.1,204 80.2,204 87.3,204 "
   transform="matrix(1.7557163,0,0,1.7557163,-26.109997,-208.5399)"
   style="fill:none;stroke:#a7a9ac;stroke-width:0.5;stroke-miterlimit:2.61310005" />
	<polygon
   id="J"
   inkscape:label="#polygon3952"
   class="st2"
   points="164.5,196 168,202.1 164.5,208.2 160.9,214.4 153.9,214.4 146.8,214.4 143.2,208.2 139.7,202.1 143.2,196 146.8,189.8 153.9,189.8 160.9,189.8 "
   transform="matrix(1.7557163,0,0,1.7557163,-26.109997,-208.5399)"
   style="fill:#e6e7e8">
	</polygon>
	<polygon
   id="polygon3954"
   class="st3"
   points="164.5,196 168,202.1 164.5,208.2 160.9,214.4 153.9,214.4 146.8,214.4 143.2,208.2 139.7,202.1 143.2,196 146.8,189.8 153.9,189.8 160.9,189.8 "
   transform="matrix(1.7557163,0,0,1.7557163,-26.109997,-208.5399)"
   style="fill:none;stroke:#a7a9ac;stroke-width:0.5;stroke-miterlimit:2.61310005" />
	<polygon
   id="polygon3956"
   class="st2"
   points="139.9,210.1 143.5,216.3 139.9,222.4 136.4,228.5 129.3,228.5 122.2,228.5 118.7,222.4 115.1,216.3 118.7,210.1 122.2,204 129.3,204 136.4,204 "
   transform="matrix(1.7557163,0,0,1.7557163,-26.109997,-208.5399)"
   style="fill:#e6e7e8" />
	<polygon
   id="H"
   inkscape:label="#polygon3958"
   class="st3"
   points="139.9,210.1 143.5,216.3 139.9,222.4 136.4,228.5 129.3,228.5 122.2,228.5 118.7,222.4 115.1,216.3 118.7,210.1 122.2,204 129.3,204 136.4,204 "
   transform="matrix(1.7557163,0,0,1.7557163,-26.109997,-208.5399)"
   style="fill:none;stroke:#a7a9ac;stroke-width:0.5;stroke-miterlimit:2.61310005">
	</polygon>
	<polygon
   id="polygon3960"
   class="st2"
   points="164.5,224.3 168,230.4 164.5,236.6 160.9,242.7 153.9,242.7 146.8,242.7 143.2,236.6 139.7,230.4 143.2,224.3 146.8,218.2 153.9,218.2 160.9,218.2 "
   transform="matrix(1.7557163,0,0,1.7557163,-26.109997,-208.5399)"
   style="fill:#e6e7e8" />
	<polygon
   id="polygon3962"
   class="st3"
   points="164.5,224.3 168,230.4 164.5,236.6 160.9,242.7 153.9,242.7 146.8,242.7 143.2,236.6 139.7,230.4 143.2,224.3 146.8,218.2 153.9,218.2 160.9,218.2 "
   transform="matrix(1.7557163,0,0,1.7557163,-26.109997,-208.5399)"
   style="fill:none;stroke:#a7a9ac;stroke-width:0.5;stroke-miterlimit:2.61310005" />
	<polygon
   id="K"
   inkscape:label="#polygon3964"
   class="st2"
   points="143.2,224.3 146.8,218.2 153.9,218.2 160.9,218.2 164.5,224.3 168,230.4 164.5,236.6 160.9,242.7 153.9,242.7 146.8,242.7 143.2,236.6 139.7,230.4 "
   transform="matrix(1.7557163,0,0,1.7557163,-26.109997,-208.5399)"
   style="fill:#e6e7e8">
	</polygon>
	<polygon
   id="polygon3966"
   class="st3"
   points="143.2,224.3 146.8,218.2 153.9,218.2 160.9,218.2 164.5,224.3 168,230.4 164.5,236.6 160.9,242.7 153.9,242.7 146.8,242.7 143.2,236.6 139.7,230.4 "
   transform="matrix(1.7557163,0,0,1.7557163,-26.109997,-208.5399)"
   style="fill:none;stroke:#a7a9ac;stroke-width:0.5;stroke-miterlimit:2.61310005" />
	<polygon
   id="L"
   inkscape:label="#polygon3968"
   class="st2"
   points="143.2,252.6 146.8,246.5 153.9,246.5 160.9,246.5 164.5,252.6 168,258.8 164.5,264.9 160.9,271.1 153.9,271.1 146.8,271.1 143.2,264.9 139.7,258.8 "
   transform="matrix(1.7557163,0,0,1.7557163,-26.109997,-208.5399)"
   style="fill:#e6e7e8">
	</polygon>
	<polygon
   id="polygon3970"
   class="st3"
   points="143.2,252.6 146.8,246.5 153.9,246.5 160.9,246.5 164.5,252.6 168,258.8 164.5,264.9 160.9,271.1 153.9,271.1 146.8,271.1 143.2,264.9 139.7,258.8 "
   transform="matrix(1.7557163,0,0,1.7557163,-26.109997,-208.5399)"
   style="fill:none;stroke:#a7a9ac;stroke-width:0.5;stroke-miterlimit:2.61310005" />
	<circle
   id="circle3972"
   class="st4"
   cx="157.88907"
   cy="35.329075"
   r="112.01469"
   style="fill:#a7a9ac;stroke-width:1.7557162" />
	<circle
   id="circle3974"
   class="st1"
   cx="157.88907"
   cy="35.329075"
   r="112.01469"
   style="fill:none;stroke:#000000;stroke-width:0.8778581;stroke-miterlimit:2.61310005" />
	<text
   id="text3976"
   class="st5 st6 st7"
   x="152.40631"
   y="202.42903"
   style="font-size:17.55716324px;font-family:Verdana;fill:#939598;stroke-width:1.7557162">F</text>


	<text
   id="text3978"
   class="st5 st6 st7"
   x="65.609848"
   y="152.66026"
   style="font-size:17.55716324px;font-family:Verdana;fill:#939598;stroke-width:1.7557162">A</text>


	<text
   id="text3980"
   class="st5 st6 st7"
   x="65.594398"
   y="202.42903"
   style="font-size:17.55716324px;font-family:Verdana;fill:#939598;stroke-width:1.7557162">B</text>


	<text
   id="text3982"
   class="st5 st6 st7"
   x="64.963394"
   y="252.19762"
   style="font-size:17.55716324px;font-family:Verdana;fill:#939598;stroke-width:1.7557162">C</text>


	<text
   id="text3984"
   class="st5 st6 st7"
   x="107.42978"
   y="177.54544"
   style="font-size:17.55716324px;font-family:Verdana;fill:#939598;stroke-width:1.7557162">D</text>


	<text
   id="text3986"
   class="st5 st6 st7"
   x="108.64193"
   y="227.31244"
   style="font-size:17.55716324px;font-family:Verdana;fill:#939598;stroke-width:1.7557162">E</text>


	<text
   id="text3988"
   class="st5 st6 st7"
   x="150.26135"
   y="252.19762"
   style="font-size:17.55716324px;font-family:Verdana;fill:#939598;stroke-width:1.7557162">G</text>


	<text
   id="text3990"
   class="st5 st6 st7"
   x="193.57137"
   y="177.54544"
   style="font-size:17.55716324px;font-family:Verdana;fill:#939598;stroke-width:1.7557162">H</text>


	<text
   id="text3992"
   class="st5 st6 st7"
   x="196.47409"
   y="227.31421"
   style="font-size:17.55716324px;font-family:Verdana;fill:#939598;stroke-width:1.7557162">I</text>


	<text
   id="text3994"
   class="st5 st6 st7"
   x="239.27652"
   y="152.66026"
   style="font-size:17.55716324px;font-family:Verdana;fill:#939598;stroke-width:1.7557162">J</text>


	<text
   id="text3996"
   class="st5 st6 st7"
   x="237.18652"
   y="202.42903"
   style="font-size:17.55716324px;font-family:Verdana;fill:#939598;stroke-width:1.7557162">K</text>


	<text
   id="text3998"
   class="st5 st6 st7"
   x="238.38145"
   y="252.19762"
   style="font-size:17.55716324px;font-family:Verdana;fill:#939598;stroke-width:1.7557162">L</text>


	<g
   id="layer1"
   inkscape:groupmode="layer"
   inkscape:label="Layer 1">
		<polygon
   id="topA"
   inkscape:label="#polygon3912"
   class="st8"
   points="55.7,189.8 62.7,189.8 66.3,196 69.8,202.1 66.3,208.2 62.7,214.4 55.7,214.4 48.6,214.4 45,208.2 41.5,202.1 45,196 48.6,189.8 "
   transform="matrix(1.7557163,0,0,1.7557163,-26.109997,-208.5399)"
   style="fill:none">
		</polygon>
		<polygon
   id="topB"
   inkscape:label="#polygon3932"
   class="st8"
   points="45,236.6 41.5,230.4 45,224.3 48.6,218.2 55.7,218.2 62.7,218.2 66.3,224.3 69.8,230.4 66.3,236.6 62.7,242.7 55.7,242.7 48.6,242.7 "
   transform="matrix(1.7557163,0,0,1.7557163,-26.109997,-208.5399)"
   style="fill:none">
		</polygon>
		<polygon
   id="topC"
   inkscape:label="#polygon3944"
   class="st8"
   points="45,264.9 41.5,258.8 45,252.6 48.6,246.5 55.7,246.5 62.7,246.5 66.3,252.6 69.8,258.8 66.3,264.9 62.7,271.1 55.7,271.1 48.6,271.1 "
   transform="matrix(1.7557163,0,0,1.7557163,-26.109997,-208.5399)"
   style="fill:none">
		</polygon>
		<polygon
   id="topD"
   inkscape:label="#polygon3948"
   class="st8"
   points="80.2,204 87.3,204 90.8,210.1 94.4,216.3 90.8,222.4 87.3,228.5 80.2,228.5 73.1,228.5 69.6,222.4 66,216.3 69.6,210.1 73.1,204 "
   transform="matrix(1.7557163,0,0,1.7557163,-26.109997,-208.5399)"
   style="fill:none">
		</polygon>
		<polygon
   id="topE"
   inkscape:label="#polygon3936"
   class="st8"
   points="69.6,250.8 66,244.6 69.6,238.5 73.1,232.3 80.2,232.3 87.3,232.3 90.8,238.5 94.4,244.6 90.8,250.8 87.3,256.9 80.2,256.9 73.1,256.9 "
   transform="matrix(1.7557163,0,0,1.7557163,-26.109997,-208.5399)"
   style="fill:none">
		</polygon>
		<polygon
   id="topF"
   inkscape:label="#polygon3920"
   class="st8"
   points="94.1,236.6 90.6,230.4 94.1,224.3 97.7,218.2 104.8,218.2 111.8,218.2 115.4,224.3 118.9,230.4 115.4,236.6 111.8,242.7 104.8,242.7 97.7,242.7 "
   transform="matrix(1.7557163,0,0,1.7557163,-26.109997,-208.5399)"
   style="fill:none">
		</polygon>
		<polygon
   id="topG"
   inkscape:label="#polygon3940"
   class="st8"
   points="94.1,264.9 90.6,258.8 94.1,252.6 97.7,246.5 104.8,246.5 111.8,246.5 115.4,252.6 118.9,258.8 115.4,264.9 111.8,271.1 104.8,271.1 97.7,271.1 "
   transform="matrix(1.7557163,0,0,1.7557163,-26.109997,-208.5399)"
   style="fill:none">
		</polygon>
		<polygon
   id="topH"
   inkscape:label="#polygon114"
   class="st8"
   points="129.3,204 136.4,204 139.9,210.1 143.5,216.3 139.9,222.4 136.4,228.5 129.3,228.5 122.2,228.5 118.7,222.4 115.1,216.3 118.7,210.1 122.2,204 "
   transform="matrix(1.7557163,0,0,1.7557163,-26.109997,-208.5399)"
   style="fill:none">
		</polygon>
		<polygon
   id="topI"
   inkscape:label="#polygon3924"
   class="st8"
   points="118.7,250.8 115.1,244.6 118.7,238.5 122.2,232.3 129.3,232.3 136.4,232.3 139.9,238.5 143.5,244.6 139.9,250.8 136.4,256.9 129.3,256.9 122.2,256.9 "
   transform="matrix(1.7557163,0,0,1.7557163,-26.109997,-208.5399)"
   style="fill:none">
		</polygon>
		<polygon
   id="topJ"
   inkscape:label="#polygon3952"
   class="st8"
   points="153.9,189.8 160.9,189.8 164.5,196 168,202.1 164.5,208.2 160.9,214.4 153.9,214.4 146.8,214.4 143.2,208.2 139.7,202.1 143.2,196 146.8,189.8 "
   transform="matrix(1.7557163,0,0,1.7557163,-26.109997,-208.5399)"
   style="fill:none">
		</polygon>
		<polygon
   id="topK"
   inkscape:label="#polygon3964"
   class="st8"
   points="143.2,236.6 139.7,230.4 143.2,224.3 146.8,218.2 153.9,218.2 160.9,218.2 164.5,224.3 168,230.4 164.5,236.6 160.9,242.7 153.9,242.7 146.8,242.7 "
   transform="matrix(1.7557163,0,0,1.7557163,-26.109997,-208.5399)"
   style="fill:none">
		</polygon>
		<polygon
   id="topL"
   inkscape:label="#polygon3968"
   class="st8"
   points="143.2,264.9 139.7,258.8 143.2,252.6 146.8,246.5 153.9,246.5 160.9,246.5 164.5,252.6 168,258.8 164.5,264.9 160.9,271.1 153.9,271.1 146.8,271.1 "
   transform="matrix(1.7557163,0,0,1.7557163,-26.109997,-208.5399)"
   style="fill:none">
		</polygon>
	</g>
	<polygon
   id="polygon105"
   class="st3"
   points="94.1,252.6 97.7,246.5 104.8,246.5 111.8,246.5 115.4,252.6 118.9,258.8 115.4,264.9 111.8,271.1 104.8,271.1 97.7,271.1 94.1,264.9 90.6,258.8 "
   transform="matrix(1.7557163,0,0,1.7557163,-26.109997,-208.5399)"
   style="fill:none;stroke:#a7a9ac;stroke-width:0.5;stroke-miterlimit:2.61310005" />
	<polygon
   id="polygon107"
   class="st3"
   points="94.1,252.6 97.7,246.5 104.8,246.5 111.8,246.5 115.4,252.6 118.9,258.8 115.4,264.9 111.8,271.1 104.8,271.1 97.7,271.1 94.1,264.9 90.6,258.8 "
   transform="matrix(1.7557163,0,0,1.7557163,-26.109997,-208.5399)"
   style="fill:none;stroke:#a7a9ac;stroke-width:0.5;stroke-miterlimit:2.61310005" />
	<polygon
   id="polygon109"
   class="st3"
   points="94.1,252.6 97.7,246.5 104.8,246.5 111.8,246.5 115.4,252.6 118.9,258.8 115.4,264.9 111.8,271.1 104.8,271.1 97.7,271.1 94.1,264.9 90.6,258.8 "
   transform="matrix(1.7557163,0,0,1.7557163,-26.109997,-208.5399)"
   style="fill:none;stroke:#a7a9ac;stroke-width:0.5;stroke-miterlimit:2.61310005" />
	<polygon
   id="polygon117"
   class="st3"
   points="118.7,238.5 122.2,232.3 129.3,232.3 136.4,232.3 139.9,238.5 143.5,244.6 139.9,250.8 136.4,256.9 129.3,256.9 122.2,256.9 118.7,250.8 115.1,244.6 "
   transform="matrix(1.7557163,0,0,1.7557163,-26.109997,-208.5399)"
   style="fill:none;stroke:#a7a9ac;stroke-width:0.5;stroke-miterlimit:2.61310005" />
<polygon
   id="A-1"
   inkscape:label="#polygon3912"
   class="st2"
   points="69.8,202.1 66.3,208.2 62.7,214.4 55.7,214.4 48.6,214.4 45,208.2 41.5,202.1 45,196 48.6,189.8 55.7,189.8 62.7,189.8 66.3,196 "
   style="fill:#000001;fill-opacity:0.00000999"
   transform="matrix(1.7557163,0,0,1.7557163,-26.109997,-208.5399)" />
<polygon
   transform="matrix(1.7557163,0,0,1.7557163,-26.109997,-158.85313)"
   id="B-1"
   inkscape:label="#polygon3912"
   class="st2"
   points="45,196 48.6,189.8 55.7,189.8 62.7,189.8 66.3,196 69.8,202.1 66.3,208.2 62.7,214.4 55.7,214.4 48.6,214.4 45,208.2 41.5,202.1 "
   style="fill:#000001;fill-opacity:0.00000999" />
<polygon
   transform="matrix(1.7557163,0,0,1.7557163,-26.109997,-108.99079)"
   id="C-1"
   inkscape:label="#polygon3912"
   class="st2"
   points="69.8,202.1 66.3,208.2 62.7,214.4 55.7,214.4 48.6,214.4 45,208.2 41.5,202.1 45,196 48.6,189.8 55.7,189.8 62.7,189.8 66.3,196 "
   style="fill:#000001;fill-opacity:0.00000999" />
<polygon
   transform="matrix(1.7557163,0,0,1.7557163,17.080623,-183.60873)"
   id="D-1"
   inkscape:label="#polygon3912"
   class="st2"
   points="45,196 48.6,189.8 55.7,189.8 62.7,189.8 66.3,196 69.8,202.1 66.3,208.2 62.7,214.4 55.7,214.4 48.6,214.4 45,208.2 41.5,202.1 "
   style="fill:#000001;fill-opacity:0.00000999" />
<polygon
   transform="matrix(1.7557163,0,0,1.7557163,17.080623,-133.92196)"
   id="E-1"
   inkscape:label="#polygon3912"
   class="st2"
   points="69.8,202.1 66.3,208.2 62.7,214.4 55.7,214.4 48.6,214.4 45,208.2 41.5,202.1 45,196 48.6,189.8 55.7,189.8 62.7,189.8 66.3,196 "
   style="fill:#000001;fill-opacity:0.00000999" /><polygon
   transform="matrix(1.7557163,0,0,1.7557163,60.095672,-158.85313)"
   id="F-1"
   inkscape:label="#polygon3912"
   class="st2"
   points="45,208.2 41.5,202.1 45,196 48.6,189.8 55.7,189.8 62.7,189.8 66.3,196 69.8,202.1 66.3,208.2 62.7,214.4 55.7,214.4 48.6,214.4 "
   style="fill:#000001;fill-opacity:0.00000999" /><polygon
   transform="matrix(1.7557163,0,0,1.7557163,60.095672,-108.99079)"
   id="G-1"
   inkscape:label="#polygon3912"
   class="st2"
   points="62.7,189.8 66.3,196 69.8,202.1 66.3,208.2 62.7,214.4 55.7,214.4 48.6,214.4 45,208.2 41.5,202.1 45,196 48.6,189.8 55.7,189.8 "
   style="fill:#000001;fill-opacity:0.00000999" /><polygon
   transform="matrix(1.7557163,0,0,1.7557163,103.28629,-183.60873)"
   id="H-1"
   inkscape:label="#polygon3912"
   class="st2"
   points="55.7,214.4 48.6,214.4 45,208.2 41.5,202.1 45,196 48.6,189.8 55.7,189.8 62.7,189.8 66.3,196 69.8,202.1 66.3,208.2 62.7,214.4 "
   style="fill:#000001;fill-opacity:0.00000999" /><polygon
   transform="matrix(1.7557163,0,0,1.7557163,103.28629,-133.92196)"
   id="I-1"
   inkscape:label="#polygon3912"
   class="st2"
   points="48.6,189.8 55.7,189.8 62.7,189.8 66.3,196 69.8,202.1 66.3,208.2 62.7,214.4 55.7,214.4 48.6,214.4 45,208.2 41.5,202.1 45,196 "
   style="fill:#000001;fill-opacity:0.00000999" /><polygon
   id="J-1"
   inkscape:label="#polygon3912"
   class="st2"
   points="164.5,196 168,202.1 164.5,208.2 160.9,214.4 153.9,214.4 146.8,214.4 143.2,208.2 139.7,202.1 143.2,196 146.8,189.8 153.9,189.8 160.9,189.8 "
   style="fill:#000001;fill-opacity:0.00000999"
   transform="matrix(1.7557163,0,0,1.7557163,-26.109997,-208.5399)" /><polygon
   id="K-1"
   inkscape:label="#polygon3912"
   class="st2"
   points="143.2,224.3 146.8,218.2 153.9,218.2 160.9,218.2 164.5,224.3 168,230.4 164.5,236.6 160.9,242.7 153.9,242.7 146.8,242.7 143.2,236.6 139.7,230.4 "
   style="fill:#000001;fill-opacity:0.00000999"
   transform="matrix(1.7557163,0,0,1.7557163,-26.109997,-208.5399)" /><polygon
   transform="matrix(1.7557163,0,0,1.7557163,146.30134,-108.99079)"
   id="L-1"
   inkscape:label="#polygon3912"
   class="st2"
   points="66.3,196 69.8,202.1 66.3,208.2 62.7,214.4 55.7,214.4 48.6,214.4 45,208.2 41.5,202.1 45,196 48.6,189.8 55.7,189.8 62.7,189.8 "
   style="fill:#000001;fill-opacity:0.00000999" /></g>

<path
   sodipodi:type="star"
   style="fill:#000000;fill-opacity:0"
   id="path110"
   sodipodi:sides="6"
   sodipodi:cx="-16.369129"
   sodipodi:cy="189.649"
   sodipodi:r1="24.909821"
   sodipodi:r2="12.45491"
   sodipodi:arg1="0.72885473"
   sodipodi:arg2="1.2524535"
   inkscape:flatsided="false"
   inkscape:rounded="0"
   inkscape:randomized="0"
   d="m 2.2120441,206.23934 -14.6828721,-4.76122 -8.975365,12.55782 -3.218103,-15.09635 -15.36307,-1.49399 11.464769,-10.33513 -6.387705,-14.0518 14.682872,4.76121 8.975364,-12.55781 3.2181035,15.09635 15.3630701,1.49398 -11.4647694,10.33513 z" /></svg>