<?xml version="1.0" encoding="utf-8"?>
<!-- Generator: Adobe Illustrator 22.1.0, SVG Export Plug-In . SVG Version: 6.00 Build 0)  -->
<svg version="1.1"
	 id="svg102" inkscape:version="0.92.3 (2405546, 2018-03-11)" sodipodi:docname="v08g.svg" xmlns:cc="http://creativecommons.org/ns#" xmlns:dc="http://purl.org/dc/elements/1.1/" xmlns:inkscape="http://www.inkscape.org/namespaces/inkscape" xmlns:rdf="http://www.w3.org/1999/02/22-rdf-syntax-ns#" xmlns:sodipodi="http://sodipodi.sourceforge.net/DTD/sodipodi-0.dtd" xmlns:svg="http://www.w3.org/2000/svg"
	 xmlns="http://www.w3.org/2000/svg" xmlns:xlink="http://www.w3.org/1999/xlink" x="0px" y="0px" viewBox="0 0 899.7 379"
	 style="enable-background:new 0 0 899.7 379;" xml:space="preserve">
<style type="text/css">
	.st0{fill:#6D6E70;}
	.st1{fill:none;stroke:#000000;stroke-width:0.8779;stroke-miterlimit:2.6131;}
	.st2{fill:#E6E7E8;}
	.st3{fill:none;stroke:#A7A9AC;stroke-width:0.5;stroke-miterlimit:2.6131;}
	.st4{fill:none;stroke:#A7A9AC;stroke-width:0.8779;stroke-miterlimit:2.6131;}
	.st5{fill:#A7A9AC;}
	.st6{fill:#939598;}
	.st7{font-family:'Verdana';}
	.st8{font-size:17.5572px;}
	.st9{fill:#000001;fill-opacity:9.990000e-06;}
	.st10{fill-opacity:9.990000e-06;}
	.st11{font-family:'MyriadPro-Regular';}
	.st12{font-size:12px;}
</style>
<sodipodi:namedview  bordercolor="#666666" borderopacity="1" gridtolerance="10" guidetolerance="10" id="namedview104" inkscape:current-layer="Layer_1" inkscape:cx="45.949062" inkscape:cy="209.11112" inkscape:pageopacity="0" inkscape:pageshadow="2" inkscape:window-height="1001" inkscape:window-maximized="1" inkscape:window-width="1920" inkscape:window-x="1911" inkscape:window-y="-9" inkscape:zoom="1.1301762" objecttolerance="10" pagecolor="#ffffff" showgrid="false">
	</sodipodi:namedview>
<g id="Layer_1" inkscape:version="0.92.3 (2405546, 2018-03-11)" sodipodi:docname="capacitive-jig-iphone4s-v08f_ai.svg">

		<sodipodi:namedview  bordercolor="#666666" borderopacity="1" gridtolerance="10" guidetolerance="10" id="namedview4001" inkscape:current-layer="layer1" inkscape:cx="145.94566" inkscape:cy="158.82841" inkscape:measure-end="162.815,177.895" inkscape:measure-start="162.815,178.151" inkscape:pageopacity="0" inkscape:pageshadow="2" inkscape:window-height="1001" inkscape:window-maximized="1" inkscape:window-width="1920" inkscape:window-x="-9" inkscape:window-y="-9" inkscape:zoom="3.9124152" objecttolerance="10" pagecolor="#ffffff" showgrid="false">
		</sodipodi:namedview>
	<path id="path3862" inkscape:connector-curvature="0" class="st0" d="M58.3,5.9h225.8c5.4,0,10,4.4,10,10v348.7c0,5.4-4.4,10-10,10
		H58.3c-5.4,0-10-4.4-10-10V15.7C48.3,10.3,52.7,5.9,58.3,5.9z"/>
	<path id="path3864" inkscape:connector-curvature="0" class="st1" d="M58.3,5.9h225.8c5.4,0,10,4.4,10,10v348.7c0,5.4-4.4,10-10,10
		H58.3c-5.4,0-10-4.4-10-10V15.7C48.3,10.3,52.7,5.9,58.3,5.9z"/>
	<polygon id="polygon3866" class="st2" points="189.2,369.9 195.6,359 201.7,348.3 214.2,348.3 226.6,348.3 232.8,359 239.1,369.9
		236.5,374.4 191.9,374.4 	"/>
	<polygon id="polygon3868" class="st3" points="189.2,369.9 195.6,359 201.7,348.3 214.2,348.3 226.6,348.3 232.8,359 239.1,369.9
		236.5,374.4 191.9,374.4 	"/>
	<polygon id="polygon3870" class="st2" points="103,369.9 109.4,359 115.5,348.3 128,348.3 140.4,348.3 146.6,359 152.9,369.9
		150.3,374.4 105.7,374.4 	"/>
	<polygon id="polygon3872" class="st3" points="103,369.9 109.4,359 115.5,348.3 128,348.3 140.4,348.3 146.6,359 152.9,369.9
		150.3,374.4 105.7,374.4 	"/>
	<polygon id="polygon3874" class="st2" points="287.9,242.1 281.8,231.3 275.5,220.5 281.8,209.7 287.9,198.9 293.9,198.9
		293.9,242.1 	"/>
	<polygon id="polygon3876" class="st3" points="287.9,242.1 281.8,231.3 275.5,220.5 281.8,209.7 287.9,198.9 293.9,198.9
		293.9,242.1 	"/>
	<polygon id="polygon3878" class="st2" points="287.9,291.7 281.8,281 275.5,270.3 281.8,259.4 287.9,248.7 293.9,248.7
		293.9,291.7 	"/>
	<polygon id="polygon3880" class="st3" points="287.9,291.7 281.8,281 275.5,270.3 281.8,259.4 287.9,248.7 293.9,248.7
		293.9,291.7 	"/>
	<polygon id="polygon3882" class="st2" points="287.9,341.6 281.8,330.9 275.5,320 281.8,309.3 287.9,298.4 293.9,298.4
		293.9,341.6 	"/>
	<polygon id="polygon3884" class="st3" points="287.9,341.6 281.8,330.9 275.5,320 281.8,309.3 287.9,298.4 293.9,298.4
		293.9,341.6 	"/>
	<path id="path3886" inkscape:connector-curvature="0" class="st2" d="M293.9,348.3v16.2c0,5.4-4.4,10-10,10h-5.8l-2.6-4.6l6.1-10.7
		l6.1-10.7h6.1L293.9,348.3z"/>
	<path id="path3888" inkscape:connector-curvature="0" class="st4" d="M293.9,348.3v16.2c0,5.4-4.4,10-10,10h-5.8l-2.6-4.6l6.1-10.7
		l6.1-10.7h6.1L293.9,348.3z"/>
	<polygon id="polygon3890" class="st2" points="54.2,198.9 60.4,209.7 66.7,220.5 60.4,231.3 54.2,242.1 48.3,242.1 48.3,198.9 	"/>
	<polygon id="polygon3892" class="st3" points="54.2,198.9 60.4,209.7 66.7,220.5 60.4,231.3 54.2,242.1 48.3,242.1 48.3,198.9 	"/>
	<polygon id="polygon3894" class="st2" points="54.2,248.7 60.4,259.4 66.7,270.3 60.4,281 54.2,291.7 48.3,291.7 48.3,248.7 	"/>
	<polygon id="polygon3896" class="st3" points="54.2,248.7 60.4,259.4 66.7,270.3 60.4,281 54.2,291.7 48.3,291.7 48.3,248.7 	"/>
	<polygon id="polygon3898" class="st2" points="54.2,298.4 60.4,309.3 66.7,320 60.4,330.9 54.2,341.6 48.3,341.6 48.3,298.4 	"/>
	<polygon id="polygon3900" class="st3" points="54.2,298.4 60.4,309.3 66.7,320 60.4,330.9 54.2,341.6 48.3,341.6 48.3,298.4 	"/>
	<path id="path3902" inkscape:connector-curvature="0" class="st2" d="M64.1,374.4h-5.8c-5.4,0-10-4.4-10-10v-16.2h6l6.1,10.7
		l6.1,10.7L64.1,374.4z"/>
	<path id="path3904" inkscape:connector-curvature="0" class="st4" d="M64.1,374.4h-5.8c-5.4,0-10-4.4-10-10v-16.2h6l6.1,10.7
		l6.1,10.7L64.1,374.4z"/>
	<polygon id="polygon3906" class="st2" points="54.2,298.4 60.4,309.3 66.7,320 60.4,330.9 54.2,341.6 48.3,341.6 48.3,298.4 	"/>
	<polygon id="polygon3908" class="st3" points="54.2,298.4 60.4,309.3 66.7,320 60.4,330.9 54.2,341.6 48.3,341.6 48.3,298.4 	"/>
	<circle id="circle3910" class="st1" cx="171.2" cy="134.4" r="112"/>
	<g>
		<polygon id="A" inkscape:label="#polygon3912" class="st2" points="72.5,224.8 85,224.8 97.2,224.8 103.6,235.7 109.7,246.4
			103.6,257.2 97.2,268 85,268 72.5,268 66.2,257.2 60,246.4 66.2,235.7 		">
		</polygon>
	</g>
	<circle id="circle3972" class="st5" cx="171.2" cy="134.4" r="112"/>
	<circle id="circle3974" class="st1" cx="171.2" cy="134.4" r="112"/>
	<g>
		<polygon id="F" inkscape:label="#polygon3920" class="st2" points="158.7,273.7 171.2,273.7 183.5,273.7 189.8,284.4 195.9,295.1
			189.8,306 183.5,316.7 171.2,316.7 158.7,316.7 152.4,306 146.2,295.1 152.4,284.4 		">
		</polygon>
		<text id="text3976" transform="matrix(1 0 0 1 165.6786 301.5286)" class="st6 st7 st8">F</text>
	</g>
	<text id="text3978" transform="matrix(1 0 0 1 78.8821 251.7599)" class="st6 st7 st8">A</text>
	<g>
		<polygon id="B" inkscape:label="#polygon3932" class="st2" points="72.5,273.7 85,273.7 97.2,273.7 103.6,284.4 109.7,295.1
			103.6,306 97.2,316.7 85,316.7 72.5,316.7 66.2,306 60,295.1 66.2,284.4 		">
		</polygon>
		<text id="text3980" transform="matrix(1 0 0 1 78.8667 301.5286)" class="st6 st7 st8">B</text>
	</g>
	<g>
		<polygon id="C" inkscape:label="#polygon3944" class="st2" points="72.5,323.3 85,323.3 97.2,323.3 103.6,334.1 109.7,344.9
			103.6,355.6 97.2,366.5 85,366.5 72.5,366.5 66.2,355.6 60,344.9 66.2,334.1 		">
		</polygon>
		<text id="text3982" transform="matrix(1 0 0 1 78.2357 351.2972)" class="st6 st7 st8">C</text>
	</g>
	<g >
		<polygon id="D" class="st2" points="115.5,248.7 128,248.7 140.4,248.7 146.6,259.4 152.9,270.3 146.6,281 140.4,291.7 128,291.7
			115.5,291.7 109.4,281 103,270.3 109.4,259.4 		"/>
		<text id="textD" transform="matrix(1 0 0 1 120.7021 276.645)" class="st6 st7 st8">D</text>
	</g>
	<polygon id="E" inkscape:label="#polygon3936" class="st2" points="115.5,298.4 128,298.4 140.4,298.4 146.6,309.3 152.9,320
		146.6,330.9 140.4,341.6 128,341.6 115.5,341.6 109.4,330.9 103,320 109.4,309.3 	">
	</polygon>
	<g>
		<polygon id="G" inkscape:label="#polygon3940" class="st2" points="158.7,323.3 171.2,323.3 183.5,323.3 189.8,334.1 195.9,344.9
			189.8,355.6 183.5,366.5 171.2,366.5 158.7,366.5 152.4,355.6 146.2,344.9 152.4,334.1 		">
		</polygon>
		<text id="text3988" transform="matrix(1 0 0 1 163.5336 351.2972)" class="st6 st7 st8">G</text>
	</g>
	<g>
		<polygon id="H" class="st2" points="239.1,270.3 232.8,281 226.6,291.7 214.2,291.7 201.7,291.7 195.6,281 189.2,270.3
			195.6,259.4 201.7,248.7 214.2,248.7 226.6,248.7 232.8,259.4 		"/>
		<text id="text3990" transform="matrix(1 0 0 1 206.8436 276.645)" class="st6 st7 st8">H</text>
	</g>
	<g>
		<polygon id="I" inkscape:label="#polygon3924" class="st2" points="201.7,298.4 214.2,298.4 226.6,298.4 232.8,309.3 239.1,320
			232.8,330.9 226.6,341.6 214.2,341.6 201.7,341.6 195.6,330.9 189.2,320 195.6,309.3 		">
		</polygon>
		<text id="text3992" transform="matrix(1 0 0 1 209.7464 326.4138)" class="st6 st7 st8">I</text>
	</g>
	<g>
		<polygon id="J" inkscape:label="#polygon3952" class="st2" points="282.1,245.4 276,256.2 269.7,267 257.4,267 244.9,267
			238.6,256.2 232.4,245.4 238.6,234.7 244.9,223.8 257.4,223.8 269.7,223.8 276,234.7 		">
		</polygon>
		<text id="text3994" transform="matrix(1 0 0 1 252.5488 251.7599)" class="st6 st7 st8">J</text>
	</g>
	<g>
		<polygon id="K" class="st2" points="282.1,295.1 276,306 269.7,316.7 257.4,316.7 244.9,316.7 238.6,306 232.4,295.1 238.6,284.4
			244.9,273.7 257.4,273.7 269.7,273.7 276,284.4 		"/>
		<text id="text3996" transform="matrix(1 0 0 1 250.4588 301.5286)" class="st6 st7 st8">K</text>
	</g>
	<g>
		<polygon id="L" class="st2" points="244.9,323.2 257.4,323.2 269.7,323.2 276,333.9 282.1,344.8 276,355.5 269.7,366.4
			257.4,366.4 244.9,366.4 238.6,355.5 232.4,344.8 238.6,333.9 		"/>
		<text id="text3998" transform="matrix(1 0 0 1 251.6537 351.2972)" class="st6 st7 st8">L</text>
	</g>
	<polygon id="A-1" inkscape:label="#polygon3912" class="st9" points="83.7,257.3 77.3,268.1 65.1,268.1 52.6,268.1 46.3,257.3
		40.1,246.5 46.3,235.8 52.6,224.9 65.1,224.9 77.3,224.9 83.7,235.8 89.8,246.5 	">
	</polygon>
	<polygon id="B-1" inkscape:label="#polygon3912" class="st9" points="72.6,273.7 85.1,273.7 97.3,273.7 103.7,284.6 109.8,295.3
		103.7,306 97.3,316.9 85.1,316.9 72.6,316.9 66.3,306 60.1,295.3 66.3,284.6 	">
	</polygon>
	<polygon id="C-1" inkscape:label="#polygon3912" class="st9" points="103.7,355.7 97.3,366.6 85.1,366.6 72.6,366.6 66.3,355.7
		60.1,345 66.3,334.3 72.6,323.4 85.1,323.4 97.3,323.4 103.7,334.3 109.8,345 	">
	</polygon>
	<polygon id="D-1" inkscape:label="#polygon3912" class="st9" points="92.7,248.7 105.2,248.7 117.4,248.7 123.8,259.5 129.9,270.2
		123.8,281 117.4,291.8 105.2,291.8 92.7,291.8 86.4,281 80.2,270.2 86.4,259.5 	">
	</polygon>
	<polygon id="E-1" inkscape:label="#polygon3912" class="st9" points="146.8,330.8 140.4,341.7 128.2,341.7 115.7,341.7
		109.4,330.8 103.2,320.1 109.4,309.4 115.7,298.5 128.2,298.5 140.4,298.5 146.8,309.4 152.9,320.1 	">
	</polygon>
	<polygon id="F-1" inkscape:label="#polygon3912" class="st9" points="146.3,295.3 152.5,284.6 158.8,273.7 171.3,273.7
		183.6,273.7 189.9,284.6 196,295.3 189.9,306 183.6,316.9 171.3,316.9 158.8,316.9 152.5,306 	">
	</polygon>
	<polygon id="G-1" inkscape:label="#polygon3912" class="st9" points="189.9,334.2 196,344.9 189.9,355.6 183.6,366.5 171.3,366.5
		158.8,366.5 152.5,355.6 146.3,344.9 152.5,334.2 158.8,323.3 171.3,323.3 183.6,323.3 	">
	</polygon>
	<polygon id="H-1" inkscape:label="#polygon3912" class="st9" points="202,292 195.7,281.1 189.5,270.4 195.7,259.7 202,248.8
		214.5,248.8 226.7,248.8 233.1,259.7 239.2,270.4 233.1,281.1 226.7,292 214.5,292 	">
	</polygon>
	<polygon id="I-1" inkscape:label="#polygon3912" class="st9" points="214.5,298.5 226.7,298.5 233.1,309.4 239.2,320.1
		233.1,330.8 226.7,341.7 214.5,341.7 202,341.7 195.7,330.8 189.5,320.1 195.7,309.4 202,298.5 	">
	</polygon>
	<polygon id="J-1" inkscape:label="#polygon3912" class="st10" points="282.2,245.5 276.1,256.2 269.8,267.1 257.5,267.1 245,267.1
		238.7,256.2 232.5,245.5 238.7,234.8 245,223.9 257.5,223.9 269.8,223.9 276.1,234.8 	">
	</polygon>
	<polygon id="K-1" inkscape:label="#polygon3912" class="st9" points="245,273.8 257.5,273.8 269.8,273.8 276.1,284.5 282.2,295.2
		276.1,306.1 269.8,316.8 257.5,316.8 245,316.8 238.7,306.1 232.5,295.2 238.7,284.5 	">
	</polygon>
	<polygon id="L-1" inkscape:label="#polygon3912" class="st9" points="245,323.4 257.5,323.4 269.8,323.4 276.1,334.1 282.2,344.8
		276.1,355.7 269.8,366.4 257.5,366.4 245,366.4 238.7,355.7 232.5,344.8 238.7,334.1 	">
	</polygon>
	<text id="textE" transform="matrix(1 0 0 1 124.5 318.5)" class="st11 st12">E</text>
</g>
</svg>
