<?xml version="1.0" encoding="utf-8"?>
<!-- Generator: Adobe Illustrator 22.1.0, SVG Export Plug-In . SVG Version: 6.00 Build 0)  -->
<svg version="1.1"
	 id="svg102" inkscape:version="0.92.3 (2405546, 2018-03-11)" sodipodi:docname="v08g.svg" xmlns:cc="http://creativecommons.org/ns#" xmlns:dc="http://purl.org/dc/elements/1.1/" xmlns:inkscape="http://www.inkscape.org/namespaces/inkscape" xmlns:rdf="http://www.w3.org/1999/02/22-rdf-syntax-ns#" xmlns:sodipodi="http://sodipodi.sourceforge.net/DTD/sodipodi-0.dtd" xmlns:svg="http://www.w3.org/2000/svg"
	 xmlns="http://www.w3.org/2000/svg" xmlns:xlink="http://www.w3.org/1999/xlink" x="0px" y="0px" viewBox="0 0 899.7 379"
	 style="enable-background:new 0 0 899.7 379;" xml:space="preserve">
<style type="text/css">
	.st0{fill:#6D6E70;}
	.st1{fill:none;stroke:#000000;stroke-width:0.8779;stroke-miterlimit:2.6131;}
	.st2{fill:#E6E7E8;}
	.st3{fill:none;stroke:#A7A9AC;stroke-width:0.5;stroke-miterlimit:2.6131;}
	.st4{fill:none;stroke:#A7A9AC;stroke-width:0.8779;stroke-miterlimit:2.6131;}
	.st5{fill:#A7A9AC;}
	.st6{fill:#939598;}
	.st7{font-family:'Verdana';}
	.st8{font-size:17.5572px;}
	.st9{fill:#000001;fill-opacity:9.990000e-06;}
	.st10{fill-opacity:9.990000e-06;}
</style>
<sodipodi:namedview  bordercolor="#666666" borderopacity="1" gridtolerance="10" guidetolerance="10" id="namedview104" inkscape:current-layer="Layer_1" inkscape:cx="45.949062" inkscape:cy="209.11112" inkscape:pageopacity="0" inkscape:pageshadow="2" inkscape:window-height="1001" inkscape:window-maximized="1" inkscape:window-width="1920" inkscape:window-x="1911" inkscape:window-y="-9" inkscape:zoom="1.1301762" objecttolerance="10" pagecolor="#ffffff" showgrid="false">
	</sodipodi:namedview>
<g id="Layer_1" inkscape:version="0.92.3 (2405546, 2018-03-11)" sodipodi:docname="capacitive-jig-iphone4s-v08f_ai.svg">

		<sodipodi:namedview  bordercolor="#666666" borderopacity="1" gridtolerance="10" guidetolerance="10" id="namedview4001" inkscape:current-layer="layer1" inkscape:cx="145.94566" inkscape:cy="158.82841" inkscape:measure-end="162.815,177.895" inkscape:measure-start="162.815,178.151" inkscape:pageopacity="0" inkscape:pageshadow="2" inkscape:window-height="1001" inkscape:window-maximized="1" inkscape:window-width="1920" inkscape:window-x="-9" inkscape:window-y="-9" inkscape:zoom="3.9124152" objecttolerance="10" pagecolor="#ffffff" showgrid="false">
		</sodipodi:namedview>
	<path id="path3862" inkscape:connector-curvature="0" class="st0" d="M58.3,5.9h225.8c5.4,0,10,4.4,10,10v348.7c0,5.4-4.4,10-10,10
		H58.3c-5.4,0-10-4.4-10-10V15.7C48.3,10.3,52.7,5.9,58.3,5.9z"/>
	<path id="path3864" inkscape:connector-curvature="0" class="st1" d="M58.3,5.9h225.8c5.4,0,10,4.4,10,10v348.7c0,5.4-4.4,10-10,10
		H58.3c-5.4,0-10-4.4-10-10V15.7C48.3,10.3,52.7,5.9,58.3,5.9z"/>
	<polygon id="polygon3866" class="st2" points="189.2,369.9 195.6,359 201.7,348.3 214.2,348.3 226.6,348.3 232.8,359 239.1,369.9
		236.5,374.4 191.9,374.4 	"/>
	<polygon id="polygon3868" class="st3" points="189.2,369.9 195.6,359 201.7,348.3 214.2,348.3 226.6,348.3 232.8,359 239.1,369.9
		236.5,374.4 191.9,374.4 	"/>
	<polygon id="polygon3870" class="st2" points="103,369.9 109.4,359 115.5,348.3 128,348.3 140.4,348.3 146.6,359 152.9,369.9
		150.3,374.4 105.7,374.4 	"/>
	<polygon id="polygon3872" class="st3" points="103,369.9 109.4,359 115.5,348.3 128,348.3 140.4,348.3 146.6,359 152.9,369.9
		150.3,374.4 105.7,374.4 	"/>
	<polygon id="polygon3874" class="st2" points="287.9,242.1 281.8,231.3 275.5,220.5 281.8,209.7 287.9,198.9 293.9,198.9
		293.9,242.1 	"/>
	<polygon id="polygon3876" class="st3" points="287.9,242.1 281.8,231.3 275.5,220.5 281.8,209.7 287.9,198.9 293.9,198.9
		293.9,242.1 	"/>
	<polygon id="polygon3878" class="st2" points="287.9,291.7 281.8,281 275.5,270.3 281.8,259.4 287.9,248.7 293.9,248.7
		293.9,291.7 	"/>
	<polygon id="polygon3880" class="st3" points="287.9,291.7 281.8,281 275.5,270.3 281.8,259.4 287.9,248.7 293.9,248.7
		293.9,291.7 	"/>
	<polygon id="polygon3882" class="st2" points="287.9,341.6 281.8,330.9 275.5,320 281.8,309.3 287.9,298.4 293.9,298.4
		293.9,341.6 	"/>
	<polygon id="polygon3884" class="st3" points="287.9,341.6 281.8,330.9 275.5,320 281.8,309.3 287.9,298.4 293.9,298.4
		293.9,341.6 	"/>
	<path id="path3886" inkscape:connector-curvature="0" class="st2" d="M293.9,348.3v16.2c0,5.4-4.4,10-10,10h-5.8l-2.6-4.6l6.1-10.7
		l6.1-10.7h6.1L293.9,348.3z"/>
	<path id="path3888" inkscape:connector-curvature="0" class="st4" d="M293.9,348.3v16.2c0,5.4-4.4,10-10,10h-5.8l-2.6-4.6l6.1-10.7
		l6.1-10.7h6.1L293.9,348.3z"/>
	<polygon id="polygon3890" class="st2" points="54.2,198.9 60.4,209.7 66.7,220.5 60.4,231.3 54.2,242.1 48.3,242.1 48.3,198.9 	"/>
	<polygon id="polygon3892" class="st3" points="54.2,198.9 60.4,209.7 66.7,220.5 60.4,231.3 54.2,242.1 48.3,242.1 48.3,198.9 	"/>
	<polygon id="polygon3894" class="st2" points="54.2,248.7 60.4,259.4 66.7,270.3 60.4,281 54.2,291.7 48.3,291.7 48.3,248.7 	"/>
	<polygon id="polygon3896" class="st3" points="54.2,248.7 60.4,259.4 66.7,270.3 60.4,281 54.2,291.7 48.3,291.7 48.3,248.7 	"/>
	<polygon id="polygon3898" class="st2" points="54.2,298.4 60.4,309.3 66.7,320 60.4,330.9 54.2,341.6 48.3,341.6 48.3,298.4 	"/>
	<polygon id="polygon3900" class="st3" points="54.2,298.4 60.4,309.3 66.7,320 60.4,330.9 54.2,341.6 48.3,341.6 48.3,298.4 	"/>
	<path id="path3902" inkscape:connector-curvature="0" class="st2" d="M64.1,374.4h-5.8c-5.4,0-10-4.4-10-10v-16.2h6l6.1,10.7
		l6.1,10.7L64.1,374.4z"/>
	<path id="path3904" inkscape:connector-curvature="0" class="st4" d="M64.1,374.4h-5.8c-5.4,0-10-4.4-10-10v-16.2h6l6.1,10.7
		l6.1,10.7L64.1,374.4z"/>
	<polygon id="polygon3906" class="st2" points="54.2,298.4 60.4,309.3 66.7,320 60.4,330.9 54.2,341.6 48.3,341.6 48.3,298.4 	"/>
	<polygon id="polygon3908" class="st3" points="54.2,298.4 60.4,309.3 66.7,320 60.4,330.9 54.2,341.6 48.3,341.6 48.3,298.4 	"/>
	<circle id="circle3910" class="st1" cx="171.2" cy="134.4" r="112"/>
	<polygon id="A" inkscape:label="#polygon3912" class="st2" points="72.5,224.8 85,224.8 97.2,224.8 103.6,235.7 109.7,246.4
		103.6,257.2 97.2,268 85,268 72.5,268 66.2,257.2 60,246.4 66.2,235.7 	">
	</polygon>
	<polygon id="D" class="st2" points="115.5,248.7 128,248.7 140.4,248.7 146.6,259.4 152.9,270.3 146.6,281 140.4,291.7
		128,291.7 115.5,291.7 109.4,281 103,270.3 109.4,259.4 	"/>
	<polygon id="F" inkscape:label="#polygon3920" class="st2" points="158.7,273.7 171.2,273.7 183.5,273.7 189.8,284.4 195.9,295.1
		189.8,306 183.5,316.7 171.2,316.7 158.7,316.7 152.4,306 146.2,295.1 152.4,284.4 	">
	</polygon>
	<polygon id="I" inkscape:label="#polygon3924" class="st2" points="201.7,298.4 214.2,298.4 226.6,298.4 232.8,309.3 239.1,320
		232.8,330.9 226.6,341.6 214.2,341.6 201.7,341.6 195.6,330.9 189.2,320 195.6,309.3 	">
	</polygon>
	<polygon id="L" class="st2" points="244.9,323.2 257.4,323.2 269.7,323.2 276,333.9 282.1,344.8 276,355.5 269.7,366.4
		257.4,366.4 244.9,366.4 238.6,355.5 232.4,344.8 238.6,333.9 	"/>
	<polygon id="B" inkscape:label="#polygon3932" class="st2" points="72.5,273.7 85,273.7 97.2,273.7 103.6,284.4 109.7,295.1
		103.6,306 97.2,316.7 85,316.7 72.5,316.7 66.2,306 60,295.1 66.2,284.4 	">
	</polygon>
	<polygon id="E" inkscape:label="#polygon3936" class="st2" points="115.5,298.4 128,298.4 140.4,298.4 146.6,309.3 152.9,320
		146.6,330.9 140.4,341.6 128,341.6 115.5,341.6 109.4,330.9 103,320 109.4,309.3 	">
	</polygon>
	<polygon id="G" inkscape:label="#polygon3940" class="st2" points="158.7,323.3 171.2,323.3 183.5,323.3 189.8,334.1 195.9,344.9
		189.8,355.6 183.5,366.5 171.2,366.5 158.7,366.5 152.4,355.6 146.2,344.9 152.4,334.1 	">
	</polygon>
	<polygon id="C" inkscape:label="#polygon3944" class="st2" points="72.5,323.3 85,323.3 97.2,323.3 103.6,334.1 109.7,344.9
		103.6,355.6 97.2,366.5 85,366.5 72.5,366.5 66.2,355.6 60,344.9 66.2,334.1 	">
	</polygon>
	<polygon id="J" inkscape:label="#polygon3952" class="st2" points="282.1,245.4 276,256.2 269.7,267 257.4,267 244.9,267
		238.6,256.2 232.4,245.4 238.6,234.7 244.9,223.8 257.4,223.8 269.7,223.8 276,234.7 	">
	</polygon>
	<polygon id="H" class="st2" points="239.1,270.3 232.8,281 226.6,291.7 214.2,291.7 201.7,291.7 195.6,281 189.2,270.3
		195.6,259.4 201.7,248.7 214.2,248.7 226.6,248.7 232.8,259.4 	"/>
	<polygon id="K" class="st2" points="282.1,295.1 276,306 269.7,316.7 257.4,316.7 244.9,316.7 238.6,306 232.4,295.1
		238.6,284.4 244.9,273.7 257.4,273.7 269.7,273.7 276,284.4 	"/>
	<circle id="circle3972" class="st5" cx="171.2" cy="134.4" r="112"/>
	<circle id="circle3974" class="st1" cx="171.2" cy="134.4" r="112"/>
	<text id="text3976" transform="matrix(1 0 0 1 165.6786 301.5286)" class="st6 st7 st8">F</text>
	<text id="text3978" transform="matrix(1 0 0 1 78.8821 251.7599)" class="st6 st7 st8">A</text>
	<text id="text3980" transform="matrix(1 0 0 1 78.8667 301.5286)" class="st6 st7 st8">B</text>
	<text id="text3982" transform="matrix(1 0 0 1 78.2357 351.2972)" class="st6 st7 st8">C</text>
	<text id="text3984" transform="matrix(1 0 0 1 120.7021 276.645)" class="st6 st7 st8">D</text>
	<text id="text3986" transform="matrix(1 0 0 1 121.9142 326.412)" class="st6 st7 st8">E</text>
	<text id="text3988" transform="matrix(1 0 0 1 163.5336 351.2972)" class="st6 st7 st8">G</text>
	<text id="text3990" transform="matrix(1 0 0 1 206.8436 276.645)" class="st6 st7 st8">H</text>
	<text id="text3992" transform="matrix(1 0 0 1 209.7464 326.4138)" class="st6 st7 st8">I</text>
	<text id="text3994" transform="matrix(1 0 0 1 252.5488 251.7599)" class="st6 st7 st8">J</text>
	<text id="text3996" transform="matrix(1 0 0 1 250.4588 301.5286)" class="st6 st7 st8">K</text>
	<text id="text3998" transform="matrix(1 0 0 1 251.6537 351.2972)" class="st6 st7 st8">L</text>
	<polygon id="A-1" inkscape:label="#polygon3912" class="st9" points="103.6,257.2 97.2,268 85,268 72.5,268 66.2,257.2 60,246.4
		66.2,235.7 72.5,224.8 85,224.8 97.2,224.8 103.6,235.7 109.7,246.4 	">
	</polygon>
	<polygon id="B-1" inkscape:label="#polygon3912" class="st9" points="72.5,273.6 85,273.6 97.2,273.6 103.6,284.5 109.7,295.2
		103.6,305.9 97.2,316.8 85,316.8 72.5,316.8 66.2,305.9 60,295.2 66.2,284.5 	">
	</polygon>
	<polygon id="C-1" inkscape:label="#polygon3912" class="st9" points="103.6,355.6 97.2,366.5 85,366.5 72.5,366.5 66.2,355.6
		60,344.9 66.2,334.2 72.5,323.3 85,323.3 97.2,323.3 103.6,334.2 109.7,344.9 	">
	</polygon>
	<polygon id="D-1" inkscape:label="#polygon3912" class="st9" points="115.6,248.6 128.1,248.6 140.3,248.6 146.7,259.4
		152.8,270.1 146.7,280.9 140.3,291.7 128.1,291.7 115.6,291.7 109.3,280.9 103.1,270.1 109.3,259.4 	">
	</polygon>
	<polygon id="E-1" inkscape:label="#polygon3912" class="st9" points="146.7,330.7 140.3,341.6 128.1,341.6 115.6,341.6
		109.3,330.7 103.1,320 109.3,309.3 115.6,298.4 128.1,298.4 140.3,298.4 146.7,309.3 152.8,320 	">
	</polygon>
	<polygon id="F-1" inkscape:label="#polygon3912" class="st9" points="146.2,295.2 152.4,284.5 158.7,273.6 171.2,273.6
		183.5,273.6 189.8,284.5 195.9,295.2 189.8,305.9 183.5,316.8 171.2,316.8 158.7,316.8 152.4,305.9 	">
	</polygon>
	<polygon id="G-1" inkscape:label="#polygon3912" class="st9" points="189.8,334.1 195.9,344.8 189.8,355.5 183.5,366.4
		171.2,366.4 158.7,366.4 152.4,355.5 146.2,344.8 152.4,334.1 158.7,323.2 171.2,323.2 183.5,323.2 	">
	</polygon>
	<polygon id="H-1" inkscape:label="#polygon3912" class="st9" points="201.9,291.9 195.6,281 189.4,270.3 195.6,259.6 201.9,248.7
		214.4,248.7 226.6,248.7 233,259.6 239.1,270.3 233,281 226.6,291.9 214.4,291.9 	">
	</polygon>
	<polygon id="I-1" inkscape:label="#polygon3912" class="st9" points="214.4,298.4 226.6,298.4 233,309.3 239.1,320 233,330.7
		226.6,341.6 214.4,341.6 201.9,341.6 195.6,330.7 189.4,320 195.6,309.3 201.9,298.4 	">
	</polygon>
	<polygon id="J-1" inkscape:label="#polygon3912" class="st10" points="282.1,245.4 276,256.1 269.7,267 257.4,267 244.9,267
		238.6,256.1 232.4,245.4 238.6,234.7 244.9,223.8 257.4,223.8 269.7,223.8 276,234.7 	">
	</polygon>
	<polygon id="K-1" inkscape:label="#polygon3912" class="st9" points="244.9,273.7 257.4,273.7 269.7,273.7 276,284.4 282.1,295.1
		276,306 269.7,316.7 257.4,316.7 244.9,316.7 238.6,306 232.4,295.1 238.6,284.4 	">
	</polygon>
	<polygon id="L-1" inkscape:label="#polygon3912" class="st9" points="244.9,323.3 257.4,323.3 269.7,323.3 276,334 282.1,344.7
		276,355.6 269.7,366.3 257.4,366.3 244.9,366.3 238.6,355.6 232.4,344.7 238.6,334 	">
	</polygon>
</g>
</svg>
